<svg width="144" height="191" viewBox="0 0 144 191" fill="none" xmlns="http://www.w3.org/2000/svg">
<path fill-rule="evenodd" clip-rule="evenodd" d="M54.4031 119.488C82.6833 132.923 117.165 123.309 134.157 96.116C152.449 66.8433 143.547 28.2847 114.274 9.99307C85.0015 -8.29858 46.4429 0.603367 28.1513 29.8761C10.7065 57.7936 17.9956 94.1571 44.1003 113.331L1.87712 180.902C0.121113 183.713 0.975706 187.414 3.78589 189.17C6.59607 190.926 10.2977 190.072 12.0537 187.261L54.4031 119.488ZM53.4021 107.409C28.8736 92.0817 21.4144 59.7724 36.7415 35.2439C52.0686 10.7154 84.378 3.25622 108.906 18.5833C133.435 33.9104 140.894 66.2198 125.567 90.7482C110.24 115.277 77.9306 122.736 53.4021 107.409Z" fill="#4800A4"/>
<path d="M78.3261 90.9494L72.1313 89.1516C71.4813 88.9687 71.1157 88.2882 71.2985 87.6382L85.1607 39.8799C85.3435 39.2298 86.024 38.8642 86.6739 39.047L92.8687 40.8448C93.5187 41.0276 93.8843 41.7082 93.7015 42.3582L79.8393 90.1165C79.6463 90.7665 78.9761 91.1423 78.3261 90.9494ZM66.7489 79.5532L71.1665 74.8403C71.6337 74.3426 71.6032 73.5504 71.0853 73.0933L61.8844 64.9982L71.0853 56.903C71.6032 56.446 71.6438 55.6537 71.1665 55.156L66.7489 50.4432C66.2919 49.9556 65.5201 49.9252 65.0225 50.3924L50.3885 64.1044C49.8705 64.5817 49.8705 65.4045 50.3885 65.8818L65.0225 79.604C65.5201 80.0712 66.2919 80.0509 66.7489 79.5532ZM99.9775 79.6141L114.612 65.892C115.129 65.4146 115.129 64.5919 114.612 64.1145L99.9775 50.3822C99.4901 49.9252 98.7183 49.9455 98.2511 50.433L93.8335 55.1459C93.3663 55.6436 93.3968 56.4358 93.9147 56.8929L103.116 64.9982L93.9147 73.0933C93.3968 73.5504 93.3562 74.3426 93.8335 74.8403L98.2511 79.5532C98.7081 80.0509 99.4799 80.0712 99.9775 79.6141Z" fill="#4800A4"/>
</svg>
